# Blender v2.77 (sub 0) OBJ File: ''
# www.blender.org
mtllib cofre.mtl
o treasure_chest
v -0.774382 1.034893 0.408674
v -0.774382 1.131602 0.250477
v -0.961729 1.131602 0.250477
v -0.961729 1.034893 0.408674
v -0.774382 -0.000000 0.506786
v -0.774382 0.862051 0.505939
v -0.961729 0.862051 0.505939
v -0.961729 -0.000000 0.506786
v 0.774382 0.000000 -0.506786
v 0.774382 0.862051 -0.505939
v 0.961729 0.862051 -0.505939
v 0.961729 0.000000 -0.506786
v 0.961729 1.131602 -0.250477
v 0.774382 1.131602 -0.250477
v 0.774382 1.174867 -0.081469
v 0.961729 1.174867 -0.081469
v 0.961729 1.174867 0.081469
v 0.774382 1.174867 0.081469
v 0.774382 1.131602 0.250477
v 0.961729 1.131602 0.250477
v 0.961729 1.034893 -0.408675
v 0.774382 1.034893 -0.408675
v 0.961729 1.034893 0.408674
v 0.774382 1.034893 0.408674
v 0.961729 -0.000000 0.506786
v 0.961729 0.862051 0.505939
v 0.774382 0.862051 0.505939
v 0.774382 -0.000000 0.506786
v -0.961729 0.000000 -0.506786
v -0.961729 0.862051 -0.505939
v -0.774382 0.862051 -0.505939
v -0.774382 0.000000 -0.506786
v -0.961729 1.131602 -0.250477
v -0.961729 1.174867 -0.081469
v -0.774382 1.174867 -0.081469
v -0.774382 1.131602 -0.250477
v -0.961729 1.174867 0.081469
v -0.774382 1.174867 0.081469
v -0.961729 1.034893 -0.408675
v -0.774382 1.034893 -0.408675
v -0.387036 1.016869 0.390045
v -0.387036 1.107705 0.240432
v -0.774382 1.107705 0.240432
v -0.774382 1.016869 0.390045
v -0.387036 -0.000000 0.480865
v -0.387036 0.855481 0.480865
v -0.774382 0.855481 0.480865
v -0.774382 -0.000000 0.480865
v 0.387036 0.000000 -0.480865
v 0.387036 0.855481 -0.480865
v 0.774382 0.855481 -0.480865
v 0.774382 0.000000 -0.480865
v 0.387036 1.107705 -0.240432
v 0.387036 1.149148 -0.078235
v 0.774382 1.149148 -0.078235
v 0.774382 1.107705 -0.240432
v 0.387036 1.149148 0.078235
v 0.387036 1.107705 0.240432
v 0.774382 1.107705 0.240432
v 0.774382 1.149148 0.078235
v 0.387036 1.016869 -0.390045
v 0.774382 1.016869 -0.390045
v 0.774382 1.016869 0.390045
v 0.387036 1.016869 0.390045
v 0.774382 -0.000000 0.480865
v 0.774382 0.855481 0.480865
v 0.387036 0.855481 0.480865
v 0.387036 -0.000000 0.480865
v -0.774382 0.000000 -0.480865
v -0.774382 0.855481 -0.480865
v -0.387036 0.855481 -0.480865
v -0.387036 0.000000 -0.480865
v -0.774382 1.107705 -0.240432
v -0.774382 1.149148 -0.078235
v -0.387036 1.149148 -0.078235
v -0.387036 1.107705 -0.240432
v -0.774382 1.149148 0.078235
v -0.387036 1.149148 0.078235
v -0.774382 1.016869 -0.390045
v -0.387036 1.016869 -0.390045
v -0.263445 1.016869 0.390045
v 0.263445 1.016869 0.390045
v 0.263445 1.107705 0.240432
v -0.263445 1.107705 0.240432
v -0.263445 -0.000000 0.480865
v 0.263445 -0.000000 0.480865
v 0.263445 0.855481 0.480865
v -0.263445 0.855481 0.480865
v 0.263445 0.000000 -0.480865
v -0.263445 0.000000 -0.480865
v -0.263445 0.855481 -0.480865
v 0.263445 0.855481 -0.480865
v 0.263445 1.107705 -0.240432
v -0.263445 1.107705 -0.240432
v -0.263445 1.149148 -0.078235
v 0.263445 1.149148 -0.078235
v 0.263445 1.149148 0.078235
v -0.263445 1.149148 0.078235
v 0.263445 1.016869 -0.390045
v -0.263445 1.016869 -0.390045
v -0.387036 1.024706 0.398145
v -0.263445 1.024706 0.398145
v -0.263445 1.118095 0.244799
v -0.387036 1.118095 0.244799
v -0.387036 -0.000000 0.492135
v -0.263445 -0.000000 0.492135
v -0.263445 0.858337 0.491767
v -0.387036 0.858337 0.491767
v 0.387036 0.000000 -0.492135
v 0.263445 0.000000 -0.492135
v 0.263445 0.858337 -0.491767
v 0.387036 0.858337 -0.491767
v 0.387036 1.118095 -0.244799
v 0.263445 1.118095 -0.244799
v 0.263445 1.160330 -0.079641
v 0.387036 1.160330 -0.079641
v 0.387036 1.160330 0.079641
v 0.263445 1.160330 0.079641
v 0.263445 1.118095 0.244799
v 0.387036 1.118095 0.244799
v 0.387036 1.024706 -0.398145
v 0.263445 1.024706 -0.398145
v 0.263445 1.024706 0.398145
v 0.387036 1.024706 0.398145
v 0.263445 -0.000000 0.492135
v 0.387036 -0.000000 0.492135
v 0.387036 0.858337 0.491767
v 0.263445 0.858337 0.491767
v -0.263445 0.000000 -0.492135
v -0.387036 0.000000 -0.492135
v -0.387036 0.858337 -0.491767
v -0.263445 0.858337 -0.491767
v -0.263445 1.118095 -0.244799
v -0.387036 1.118095 -0.244799
v -0.387036 1.160330 -0.079641
v -0.263445 1.160330 -0.079641
v -0.263445 1.160330 0.079641
v -0.387036 1.160330 0.079641
v -0.263445 1.024706 -0.398145
v -0.387036 1.024706 -0.398145
v -0.961729 1.056512 -0.218760
v -0.961729 0.977066 -0.348719
v -0.961729 0.840891 -0.425350
v -0.961729 1.056512 0.218759
v -0.961729 0.000096 -0.426097
v -0.961729 0.000096 0.426097
v -0.961729 0.840891 0.425350
v -0.961729 0.977066 0.348719
v -0.961729 1.094257 -0.071315
v -0.961729 1.094257 0.071315
v 0.961729 1.056512 0.218759
v 0.961729 0.977066 0.348719
v 0.961729 0.840891 0.425350
v 0.961729 1.056512 -0.218760
v 0.961729 0.000096 0.426097
v 0.961729 0.000096 -0.426097
v 0.961729 0.840891 -0.425350
v 0.961729 0.977066 -0.348719
v 0.961729 1.094257 0.071315
v 0.961729 1.094257 -0.071315
v 0.104977 0.735752 -0.478512
v 0.089038 0.676265 -0.478512
v 0.089038 0.676265 -0.494456
v 0.104977 0.735752 -0.494456
v 0.045490 0.632717 -0.478512
v 0.045490 0.632717 -0.494456
v -0.013997 0.616777 -0.478512
v -0.013997 0.616777 -0.494456
v -0.073484 0.632717 -0.478512
v -0.073484 0.632717 -0.494456
v -0.117032 0.676265 -0.478512
v -0.117032 0.676265 -0.494456
v -0.132971 0.735752 -0.478512
v -0.132971 0.735752 -0.494456
v -0.117032 0.795239 -0.478512
v -0.117032 0.795239 -0.494456
v -0.073484 0.838787 -0.478512
v -0.073484 0.838787 -0.494456
v -0.013997 0.854726 -0.478512
v -0.013997 0.854726 -0.494456
v 0.045490 0.838787 -0.478512
v 0.045490 0.838787 -0.494456
v 0.089038 0.795239 -0.478512
v 0.089038 0.795239 -0.494456
vt 0.1694 0.8108
vt 0.2915 0.9984
vt 0.2915 0.8108
vt 0.4234 0.8108
vt 0.9998 0.9984
vt 0.9998 0.8108
vt 0.4207 0.8109
vt 1.0000 0.9989
vt 1.0000 0.8109
vt 0.1715 0.8109
vt 0.0563 0.9988
vt 0.1715 0.9988
vt -0.0521 0.8109
vt -0.1686 0.9988
vt -0.0521 0.9988
vt 0.2914 0.8109
vt 0.2914 0.9988
vt 0.4234 0.9984
vt 0.4207 0.9988
vt 0.0563 0.8109
vt -0.2907 0.8109
vt -0.2907 0.9988
vt -0.4226 0.9988
vt -0.9990 0.8108
vt -0.9990 0.9988
vt -0.4199 0.9984
vt -0.9991 0.8107
vt -0.9991 0.9984
vt -0.0555 0.9984
vt -0.1707 0.8107
vt -0.1707 0.9984
vt 0.1694 0.9984
vt 0.0529 0.8108
vt 0.0529 0.9984
vt -0.2906 0.8107
vt -0.2906 0.9984
vt -0.4226 0.8108
vt -0.4199 0.8107
vt -0.0555 0.8108
vt 1.4837 0.5750
vt 1.6217 0.4906
vt 1.4837 0.4906
vt 1.4837 0.3994
vt 1.6217 0.0010
vt 1.4837 0.0010
vt 1.4837 0.4015
vt 1.6217 0.0011
vt 1.4837 0.0011
vt 1.4837 0.6533
vt 1.6217 0.5737
vt 1.4837 0.5737
vt 1.2079 0.5750
vt 1.0699 0.6555
vt 1.2079 0.6555
vt 1.6217 0.4908
vt 1.4837 0.4908
vt 1.6217 0.3994
vt 1.6217 0.4015
vt 1.4837 0.6679
vt 1.6217 0.5930
vt 1.4837 0.5930
vt 1.0699 0.5750
vt 1.2079 0.4906
vt 1.0699 0.4906
vt 1.0699 0.3994
vt 1.2079 0.0010
vt 1.0699 0.0010
vt 1.0699 0.4015
vt 1.2079 0.0011
vt 1.0699 0.0011
vt 1.0699 0.6533
vt 1.2079 0.5737
vt 1.0699 0.5737
vt 1.6217 0.5750
vt 1.4837 0.6555
vt 1.6217 0.6555
vt 1.2079 0.4908
vt 1.0699 0.4908
vt 1.2079 0.3994
vt 1.2079 0.4015
vt 1.0699 0.6679
vt 1.2079 0.5929
vt 1.0699 0.5929
vt 1.2519 0.4906
vt 1.4397 0.5750
vt 1.4397 0.4906
vt 1.2519 0.0010
vt 1.4397 0.3994
vt 1.4397 0.0010
vt 1.2519 0.0011
vt 1.4397 0.4015
vt 1.4397 0.0011
vt 1.2519 0.5737
vt 1.4397 0.6533
vt 1.4397 0.5737
vt 1.4397 0.6555
vt 1.2519 0.5750
vt 1.2519 0.6555
vt 1.2519 0.4908
vt 1.4397 0.4908
vt 1.2519 0.3994
vt 1.2519 0.4015
vt 1.2519 0.5929
vt 1.4397 0.6679
vt 1.4397 0.5929
vt 0.3545 0.7804
vt 0.4155 0.6872
vt 0.3545 0.6872
vt 0.0004 0.7804
vt 0.2885 0.6872
vt 0.0004 0.6872
vt 0.9996 0.6875
vt 0.7100 0.7805
vt 0.9996 0.7805
vt 0.5855 0.6875
vt 0.5279 0.7805
vt 0.5855 0.7805
vt 0.4737 0.6875
vt 0.4155 0.7804
vt 0.4737 0.7804
vt 0.6455 0.6875
vt 0.6454 0.7805
vt 0.2885 0.7804
vt 0.7100 0.6875
vt 0.5279 0.6875
vt 0.3545 0.7804
vt 0.4155 0.6875
vt 0.3545 0.6875
vt 0.0005 0.7804
vt 0.2886 0.6875
vt 0.0005 0.6875
vt 0.9996 0.6872
vt 0.7100 0.7804
vt 0.9996 0.7804
vt 0.5855 0.6872
vt 0.5279 0.7804
vt 0.5855 0.7804
vt 0.4737 0.6872
vt 0.4155 0.7804
vt 0.4737 0.7804
vt 0.6454 0.6872
vt 0.6454 0.7804
vt 0.2886 0.7804
vt 0.7100 0.6872
vt 0.5279 0.6872
vt 1.2519 0.6679
vt 1.2519 0.6533
vt 1.2079 0.6679
vt 0.0295 0.1268
vt 0.1646 -0.0054
vt 0.0295 0.4067
vt 0.6914 0.5393
vt 0.1646 0.5388
vt 0.0058 0.2211
vt 0.0058 0.3123
vt 0.0295 0.4067
vt 0.1646 0.5388
vt 0.0295 0.1268
vt 0.6914 -0.0058
vt 0.1646 -0.0054
vt 0.0058 0.2211
vt 0.0058 0.3123
vt 1.6217 0.6679
vt -0.1686 0.8109
vt -0.4199 0.8081
vt -0.2906 0.8081
vt -0.1707 0.8081
vt 0.0529 0.8081
vt 0.1694 0.8081
vt 0.2915 0.8081
vt 0.4234 0.8081
vt -0.4226 0.8086
vt -0.2907 0.8086
vt -0.1686 0.8086
vt -0.0521 0.8086
vt 0.1715 0.8086
vt 0.2914 0.8086
vt 0.4207 0.8086
vt 1.0000 0.8086
vt -0.9990 0.8086
vt 0.9998 0.8081
vt -0.9991 0.8081
vt 0.8309 0.3450
vt 0.8098 0.3349
vt 0.8309 0.3349
vt 0.8309 0.3551
vt 0.8098 0.3450
vt 0.8309 0.3652
vt 0.8098 0.3551
vt 0.8309 0.2543
vt 0.8098 0.2442
vt 0.8309 0.2442
vt 0.8098 0.2644
vt 0.8098 0.2543
vt 0.8309 0.2745
vt 0.8309 0.2644
vt 0.8309 0.2846
vt 0.8098 0.2745
vt 0.8098 0.2946
vt 0.8098 0.2846
vt 0.8309 0.3047
vt 0.8309 0.2946
vt 0.8309 0.3148
vt 0.8098 0.3047
vt 0.8309 0.3249
vt 0.8098 0.3148
vt 0.8098 0.3249
vt 0.7674 0.0891
vt 0.7288 0.3714
vt 0.7288 0.1647
vt 0.8728 0.0891
vt 0.9113 0.3714
vt 0.8201 0.0614
vt 0.9113 0.1647
vt 0.9254 0.2681
vt 0.8201 0.4747
vt 0.7674 0.4470
vt 0.7147 0.2681
vt 1.6217 0.6533
vt 1.2079 0.6533
vt 0.0793 0.0436
vt 0.6914 -0.0058
vt 0.0793 0.4898
vt 0.0793 0.4898
vt 0.6914 0.5393
vt 0.0793 0.0436
vt -0.0555 0.8081
vt 0.0563 0.8086
vt 0.8098 0.3652
vt 0.8728 0.4470
vn 0.0000 0.9212 0.3891
vn 0.0000 0.6942 0.7198
vn 0.0000 0.2540 0.9672
vn 0.0000 0.0010 1.0000
vn 0.0000 0.2540 -0.9672
vn 0.0000 0.0010 -1.0000
vn 0.0000 0.9212 -0.3891
vn 0.0000 0.9922 -0.1250
vn 0.0000 0.9922 0.1250
vn 0.0000 0.6942 -0.7198
vn 0.0000 0.9219 0.3875
vn 0.0000 0.6953 0.7187
vn 0.0000 0.2535 0.9673
vn 0.0000 -0.0000 1.0000
vn 0.0000 0.2535 -0.9673
vn 0.0000 0.0000 -1.0000
vn 0.0000 0.9922 -0.1248
vn 0.0000 0.9219 -0.3875
vn 0.0000 0.9922 0.1248
vn 0.0000 0.6953 -0.7187
vn 0.0000 0.6948 0.7192
vn 0.0000 0.9216 0.3882
vn 0.0000 0.0004 1.0000
vn 0.0000 0.2537 0.9673
vn 0.0000 0.0004 -1.0000
vn 0.0000 0.2537 -0.9673
vn 0.0000 0.9216 -0.3882
vn 0.0000 0.9922 -0.1249
vn 0.0000 0.9922 0.1249
vn 0.0000 0.6948 -0.7192
vn -1.0000 -0.0000 0.0000
vn 1.0000 -0.0000 0.0000
vn 0.0000 -1.0000 0.0012
vn 0.0002 -1.0000 0.0011
vn 0.0001 -1.0000 0.0018
vn 0.0003 -1.0000 -0.0004
vn 0.0004 -1.0000 -0.0003
vn 0.0001 -1.0000 -0.0001
vn 0.0003 -1.0000 -0.0000
vn 0.0000 -1.0000 -0.0000
vn -0.0000 -1.0000 -0.0012
vn -0.0002 -1.0000 -0.0011
vn -0.0001 -1.0000 -0.0017
vn 0.0000 -1.0000 -0.0018
vn -0.0001 -1.0000 -0.0000
vn -0.0003 -1.0000 0.0004
vn -0.0004 -1.0000 0.0003
vn -0.0003 -1.0000 0.0000
vn 0.0000 -1.0000 0.0001
vn 0.0000 -1.0000 0.0018
vn 0.8660 -0.5000 0.0000
vn 0.5000 -0.8660 0.0000
vn -0.5000 -0.8660 0.0000
vn -0.8660 -0.5000 0.0000
vn -0.8660 0.5000 0.0000
vn -0.5000 0.8660 0.0000
vn 0.0000 1.0000 0.0000
vn 0.5000 0.8660 0.0000
vn 0.8660 0.5000 0.0000
g treasure_chest_treasure_chest_treasure_chest
usemtl treasure_chest
s 1
f 2/1/1 4/2/2 1/3/2
f 6/4/3 8/5/4 5/6/4
f 10/7/5 12/8/6 9/9/6
f 14/10/7 16/11/8 13/12/7
f 18/13/9 20/14/1 17/15/9
f 22/16/10 13/12/7 21/17/10
f 6/4/3 4/2/2 7/18/3
f 10/7/5 21/17/10 11/19/5
f 15/20/8 17/15/9 16/11/8
f 20/14/1 24/21/2 23/22/2
f 26/23/3 28/24/4 25/25/4
f 30/26/5 32/27/6 29/28/6
f 34/29/8 36/30/7 33/31/7
f 3/32/1 38/33/9 37/34/9
f 33/31/7 40/35/10 39/36/10
f 23/22/2 27/37/3 26/23/3
f 39/36/10 31/38/5 30/26/5
f 37/34/9 35/39/8 34/29/8
f 42/40/11 44/41/12 41/42/12
f 46/43/13 48/44/14 45/45/14
f 50/46/15 52/47/16 49/48/16
f 54/49/17 56/50/18 53/51/18
f 58/52/11 60/53/19 57/54/19
f 53/51/18 62/55/20 61/56/20
f 41/42/12 47/57/13 46/43/13
f 61/56/20 51/58/15 50/46/15
f 57/59/19 55/60/17 54/61/17
f 59/62/11 64/63/12 63/64/12
f 66/65/13 68/66/14 65/67/14
f 70/68/15 72/69/16 69/70/16
f 74/71/17 76/72/18 73/73/18
f 43/74/11 78/75/19 77/76/19
f 73/73/18 80/77/20 79/78/20
f 63/64/12 67/79/13 66/65/13
f 79/78/20 71/80/15 70/68/15
f 77/81/19 75/82/17 74/83/17
f 82/84/12 84/85/11 81/86/12
f 86/87/14 88/88/13 85/89/14
f 90/90/16 92/91/15 89/92/16
f 94/93/18 96/94/17 93/95/18
f 98/96/19 83/97/11 97/98/19
f 100/99/20 93/95/18 99/100/20
f 87/101/13 81/86/12 88/88/13
f 91/102/15 99/100/20 92/91/15
f 95/103/17 97/104/19 96/105/17
f 102/106/21 104/107/22 101/108/21
f 106/109/23 108/110/24 105/111/23
f 110/112/25 112/113/26 109/114/25
f 114/115/27 116/116/28 113/117/27
f 118/118/29 120/119/22 117/120/29
f 122/121/30 113/117/27 121/122/30
f 107/123/24 101/108/21 108/110/24
f 111/124/26 121/122/30 112/113/26
f 115/125/28 117/120/29 116/116/28
f 124/126/21 119/127/22 123/128/21
f 126/129/23 128/130/24 125/131/23
f 130/132/25 132/133/26 129/134/25
f 134/135/27 136/136/28 133/137/27
f 138/138/29 103/139/22 137/140/29
f 140/141/30 133/137/27 139/142/30
f 127/143/24 123/128/21 128/130/24
f 131/144/26 139/142/30 132/133/26
f 135/145/28 137/140/29 136/136/28
f 41/42/31 104/107/31 42/40/31
f 46/43/31 101/108/31 41/42/31
f 46/43/31 105/111/31 108/110/31
f 88/88/32 106/109/32 85/89/32
f 88/88/32 102/106/32 107/123/32
f 81/86/32 103/139/32 102/106/32
f 84/85/32 137/140/32 103/139/32
f 95/103/32 137/140/32 98/146/32
f 94/93/32 136/136/32 95/147/32
f 100/99/32 133/137/32 94/93/32
f 91/102/32 139/142/32 100/99/32
f 91/102/32 129/134/32 132/133/32
f 71/80/31 130/132/31 72/69/31
f 71/80/31 140/141/31 131/144/31
f 80/77/31 134/135/31 140/141/31
f 76/72/31 135/145/31 134/135/31
f 78/148/31 135/145/31 75/82/31
f 42/40/31 138/138/31 78/75/31
f 50/46/32 109/114/32 112/113/32
f 92/91/31 110/112/31 89/92/31
f 92/91/31 122/121/31 111/124/31
f 99/100/31 114/115/31 122/121/31
f 93/95/31 115/125/31 114/115/31
f 97/104/31 115/125/31 96/105/31
f 83/97/31 118/118/31 97/98/31
f 82/84/31 119/127/31 83/97/31
f 87/101/31 123/128/31 82/84/31
f 87/101/31 125/131/31 128/130/31
f 67/79/32 126/129/32 68/66/32
f 67/79/32 124/126/32 127/143/32
f 64/63/32 120/119/32 124/126/32
f 58/52/32 117/120/32 120/119/32
f 54/61/32 117/120/32 57/59/32
f 53/51/32 116/116/32 54/49/32
f 61/56/32 113/117/32 53/51/32
f 50/46/32 121/122/32 61/56/32
f 141/149/31 143/150/31 144/151/31
f 143/150/31 146/152/31 144/151/31
f 147/153/31 144/151/31 146/152/31
f 149/154/31 144/151/31 150/155/31
f 47/57/32 5/6/32 48/44/32
f 44/41/32 6/4/32 47/57/32
f 44/41/32 2/1/32 1/3/32
f 43/74/32 38/33/32 2/1/32
f 74/83/32 38/33/32 77/81/32
f 73/73/32 35/39/32 74/71/32
f 79/78/32 36/30/32 73/73/32
f 70/68/32 40/35/32 79/78/32
f 70/68/32 32/27/32 31/38/32
f 151/156/32 153/157/32 154/158/32
f 153/157/32 156/159/32 154/158/32
f 157/160/32 154/158/32 156/159/32
f 151/156/32 160/161/32 159/162/32
f 51/58/31 9/9/31 52/47/31
f 51/58/31 22/16/31 10/7/31
f 62/55/31 14/10/31 22/16/31
f 56/50/31 15/20/31 14/10/31
f 60/163/31 15/20/31 55/60/31
f 59/62/31 18/13/31 60/53/31
f 63/64/31 19/164/31 59/62/31
f 63/64/31 27/37/31 24/21/31
f 66/65/31 28/24/31 27/37/31
f 29/28/31 143/165/31 30/26/31
f 143/165/31 39/36/31 30/26/31
f 142/166/31 33/31/31 39/36/31
f 141/167/31 34/29/31 33/31/31
f 34/29/31 150/168/31 37/34/31
f 37/34/31 144/169/31 3/32/31
f 3/32/31 148/170/31 4/2/31
f 4/2/31 147/171/31 7/18/31
f 147/171/31 8/5/31 7/18/31
f 25/25/32 153/172/32 26/23/32
f 153/172/32 23/22/32 26/23/32
f 152/173/32 20/14/32 23/22/32
f 151/174/32 17/15/32 20/14/32
f 159/175/32 16/11/32 17/15/32
f 16/11/32 154/176/32 13/12/32
f 13/12/32 158/177/32 21/17/32
f 21/17/32 157/178/32 11/19/32
f 157/178/32 12/8/32 11/19/32
f 52/47/33 12/8/34 156/179/35
f 155/180/36 28/24/37 156/179/38
f 156/179/38 65/67/39 68/66/40
f 126/129/40 86/87/40 68/66/40
f 68/66/40 90/90/40 156/179/38
f 106/109/40 45/45/40 85/89/40
f 48/44/41 8/5/42 146/181/43
f 45/45/44 146/181/43 85/89/44
f 85/89/45 90/90/40 86/87/40
f 145/182/46 32/27/47 146/181/45
f 146/181/45 69/70/48 72/69/49
f 130/132/40 90/90/40 72/69/49
f 146/181/45 72/69/49 90/90/40
f 156/179/35 89/92/50 49/48/50
f 110/112/40 49/48/40 89/92/40
f 52/47/33 156/179/35 49/48/50
f 162/183/51 164/184/32 161/185/32
f 165/186/52 163/187/51 162/183/51
f 167/188/40 166/189/52 165/186/52
f 169/190/53 168/191/40 167/192/40
f 169/190/53 172/193/54 170/194/53
f 173/195/31 172/193/54 171/196/54
f 175/197/55 174/198/31 173/195/31
f 175/197/55 178/199/56 176/200/55
f 179/201/57 178/199/56 177/202/56
f 181/203/58 180/204/57 179/201/57
f 183/205/59 182/206/58 181/203/58
f 161/185/32 184/207/59 183/205/59
f 166/208/16 184/209/16 163/210/16
f 170/211/16 176/212/16 168/213/16
f 172/214/16 174/215/16 176/212/16
f 176/212/16 180/216/16 184/209/16
f 180/216/16 182/217/16 184/209/16
f 168/213/16 176/212/16 184/209/16
f 164/218/16 163/210/16 184/209/16
f 2/1/1 3/32/1 4/2/2
f 6/4/3 7/18/3 8/5/4
f 10/7/5 11/19/5 12/8/6
f 14/10/7 15/20/8 16/11/8
f 18/13/9 19/164/1 20/14/1
f 22/16/10 14/10/7 13/12/7
f 6/4/3 1/3/2 4/2/2
f 10/7/5 22/16/10 21/17/10
f 15/20/8 18/13/9 17/15/9
f 20/14/1 19/164/1 24/21/2
f 26/23/3 27/37/3 28/24/4
f 30/26/5 31/38/5 32/27/6
f 34/29/8 35/39/8 36/30/7
f 3/32/1 2/1/1 38/33/9
f 33/31/7 36/30/7 40/35/10
f 23/22/2 24/21/2 27/37/3
f 39/36/10 40/35/10 31/38/5
f 37/34/9 38/33/9 35/39/8
f 42/40/11 43/74/11 44/41/12
f 46/43/13 47/57/13 48/44/14
f 50/46/15 51/58/15 52/47/16
f 54/49/17 55/219/17 56/50/18
f 58/52/11 59/62/11 60/53/19
f 53/51/18 56/50/18 62/55/20
f 41/42/12 44/41/12 47/57/13
f 61/56/20 62/55/20 51/58/15
f 57/59/19 60/163/19 55/60/17
f 59/62/11 58/52/11 64/63/12
f 66/65/13 67/79/13 68/66/14
f 70/68/15 71/80/15 72/69/16
f 74/71/17 75/220/17 76/72/18
f 43/74/11 42/40/11 78/75/19
f 73/73/18 76/72/18 80/77/20
f 63/64/12 64/63/12 67/79/13
f 79/78/20 80/77/20 71/80/15
f 77/81/19 78/148/19 75/82/17
f 82/84/12 83/97/11 84/85/11
f 86/87/14 87/101/13 88/88/13
f 90/90/16 91/102/15 92/91/15
f 94/93/18 95/147/17 96/94/17
f 98/96/19 84/85/11 83/97/11
f 100/99/20 94/93/18 93/95/18
f 87/101/13 82/84/12 81/86/12
f 91/102/15 100/99/20 99/100/20
f 95/103/17 98/146/19 97/104/19
f 102/106/21 103/139/22 104/107/22
f 106/109/23 107/123/24 108/110/24
f 110/112/25 111/124/26 112/113/26
f 114/115/27 115/125/28 116/116/28
f 118/118/29 119/127/22 120/119/22
f 122/121/30 114/115/27 113/117/27
f 107/123/24 102/106/21 101/108/21
f 111/124/26 122/121/30 121/122/30
f 115/125/28 118/118/29 117/120/29
f 124/126/21 120/119/22 119/127/22
f 126/129/23 127/143/24 128/130/24
f 130/132/25 131/144/26 132/133/26
f 134/135/27 135/145/28 136/136/28
f 138/138/29 104/107/22 103/139/22
f 140/141/30 134/135/27 133/137/27
f 127/143/24 124/126/21 123/128/21
f 131/144/26 140/141/30 139/142/30
f 135/145/28 138/138/29 137/140/29
f 41/42/31 101/108/31 104/107/31
f 46/43/31 108/110/31 101/108/31
f 46/43/31 45/45/31 105/111/31
f 88/88/32 107/123/32 106/109/32
f 88/88/32 81/86/32 102/106/32
f 81/86/32 84/85/32 103/139/32
f 84/85/32 98/96/32 137/140/32
f 95/103/32 136/136/32 137/140/32
f 94/93/32 133/137/32 136/136/32
f 100/99/32 139/142/32 133/137/32
f 91/102/32 132/133/32 139/142/32
f 91/102/32 90/90/32 129/134/32
f 71/80/31 131/144/31 130/132/31
f 71/80/31 80/77/31 140/141/31
f 80/77/31 76/72/31 134/135/31
f 76/72/31 75/220/31 135/145/31
f 78/148/31 138/138/31 135/145/31
f 42/40/31 104/107/31 138/138/31
f 50/46/32 49/48/32 109/114/32
f 92/91/31 111/124/31 110/112/31
f 92/91/31 99/100/31 122/121/31
f 99/100/31 93/95/31 114/115/31
f 93/95/31 96/94/31 115/125/31
f 97/104/31 118/118/31 115/125/31
f 83/97/31 119/127/31 118/118/31
f 82/84/31 123/128/31 119/127/31
f 87/101/31 128/130/31 123/128/31
f 87/101/31 86/87/31 125/131/31
f 67/79/32 127/143/32 126/129/32
f 67/79/32 64/63/32 124/126/32
f 64/63/32 58/52/32 120/119/32
f 58/52/32 57/54/32 117/120/32
f 54/61/32 116/116/32 117/120/32
f 53/51/32 113/117/32 116/116/32
f 61/56/32 121/122/32 113/117/32
f 50/46/32 112/113/32 121/122/32
f 141/149/31 142/221/31 143/150/31
f 143/150/31 145/222/31 146/152/31
f 147/153/31 148/223/31 144/151/31
f 149/154/31 141/149/31 144/151/31
f 47/57/32 6/4/32 5/6/32
f 44/41/32 1/3/32 6/4/32
f 44/41/32 43/74/32 2/1/32
f 43/74/32 77/76/32 38/33/32
f 74/83/32 35/39/32 38/33/32
f 73/73/32 36/30/32 35/39/32
f 79/78/32 40/35/32 36/30/32
f 70/68/32 31/38/32 40/35/32
f 70/68/32 69/70/32 32/27/32
f 151/156/32 152/224/32 153/157/32
f 153/157/32 155/225/32 156/159/32
f 157/160/32 158/226/32 154/158/32
f 151/156/32 154/158/32 160/161/32
f 51/58/31 10/7/31 9/9/31
f 51/58/31 62/55/31 22/16/31
f 62/55/31 56/50/31 14/10/31
f 56/50/31 55/219/31 15/20/31
f 60/163/31 18/13/31 15/20/31
f 59/62/31 19/164/31 18/13/31
f 63/64/31 24/21/31 19/164/31
f 63/64/31 66/65/31 27/37/31
f 66/65/31 65/67/31 28/24/31
f 29/28/31 145/182/31 143/165/31
f 143/165/31 142/166/31 39/36/31
f 142/166/31 141/167/31 33/31/31
f 141/167/31 149/227/31 34/29/31
f 34/29/31 149/227/31 150/168/31
f 37/34/31 150/168/31 144/169/31
f 3/32/31 144/169/31 148/170/31
f 4/2/31 148/170/31 147/171/31
f 147/171/31 146/181/31 8/5/31
f 25/25/32 155/180/32 153/172/32
f 153/172/32 152/173/32 23/22/32
f 152/173/32 151/174/32 20/14/32
f 151/174/32 159/175/32 17/15/32
f 159/175/32 160/228/32 16/11/32
f 16/11/32 160/228/32 154/176/32
f 13/12/32 154/176/32 158/177/32
f 21/17/32 158/177/32 157/178/32
f 157/178/32 156/179/32 12/8/32
f 52/47/33 9/9/40 12/8/34
f 155/180/36 25/25/41 28/24/37
f 156/179/38 28/24/37 65/67/39
f 126/129/40 125/131/40 86/87/40
f 68/66/40 86/87/40 90/90/40
f 106/109/40 105/111/40 45/45/40
f 48/44/41 5/6/40 8/5/42
f 45/45/44 48/44/41 146/181/43
f 85/89/45 146/181/45 90/90/40
f 145/182/46 29/28/33 32/27/47
f 146/181/45 32/27/47 69/70/48
f 130/132/40 129/134/40 90/90/40
f 156/179/35 90/90/50 89/92/50
f 110/112/40 109/114/40 49/48/40
f 162/183/51 163/187/51 164/184/32
f 165/186/52 166/189/52 163/187/51
f 167/188/40 168/229/40 166/189/52
f 169/190/53 170/194/53 168/191/40
f 169/190/53 171/196/54 172/193/54
f 173/195/31 174/198/31 172/193/54
f 175/197/55 176/200/55 174/198/31
f 175/197/55 177/202/56 178/199/56
f 179/201/57 180/204/57 178/199/56
f 181/203/58 182/206/58 180/204/57
f 183/205/59 184/207/59 182/206/58
f 161/185/32 164/184/32 184/207/59
f 166/208/16 168/213/16 184/209/16
f 170/211/16 172/214/16 176/212/16
f 176/212/16 178/230/16 180/216/16
