# Blender v2.73 (sub 0) OBJ File: ''
# www.blender.org
mtllib piso.mtl
o SketchUp_ID2
v 44.299992 0.000000 0.000000
v 0.000000 0.000000 -70.230011
v 0.000000 0.000000 0.000000
v 44.299992 0.000000 -70.230011
v 44.299992 0.000000 -70.230011
v 44.299992 0.000000 0.000000
v 0.000000 0.000000 -70.230011
v 0.000000 0.000000 0.000000
v 44.299992 -1.120000 -70.230011
v 44.299992 0.000000 0.000000
v 44.299992 -1.120000 0.000000
v 44.299992 0.000000 -70.230011
v 44.299992 0.000000 -70.230011
v 44.299992 -1.120000 -70.230011
v 44.299992 0.000000 0.000000
v 44.299992 -1.120000 0.000000
v 0.000000 0.000000 -70.230011
v 44.299992 -1.120000 -70.230011
v 0.000000 -1.120000 -70.230011
v 44.299992 0.000000 -70.230011
v 44.299992 0.000000 -70.230011
v 0.000000 0.000000 -70.230011
v 44.299992 -1.120000 -70.230011
v 0.000000 -1.120000 -70.230011
v 0.000000 0.000000 -70.230011
v 0.000000 -1.120000 0.000000
v 0.000000 0.000000 0.000000
v 0.000000 -1.120000 -70.230011
v 0.000000 -1.120000 -70.230011
v 0.000000 0.000000 -70.230011
v 0.000000 -1.120000 0.000000
v 0.000000 0.000000 0.000000
v 44.299992 0.000000 0.000000
v 0.000000 -1.120000 0.000000
v 44.299992 -1.120000 0.000000
v 0.000000 0.000000 0.000000
v 0.000000 0.000000 0.000000
v 44.299992 0.000000 0.000000
v 0.000000 -1.120000 0.000000
v 44.299992 -1.120000 0.000000
v 44.299992 -1.120000 -70.230011
v 0.000000 -1.120000 0.000000
v 0.000000 -1.120000 -70.230011
v 44.299992 -1.120000 0.000000
v 44.299992 -1.120000 0.000000
v 44.299992 -1.120000 -70.230011
v 0.000000 -1.120000 0.000000
v 0.000000 -1.120000 -70.230011
vt 2.953333 0.000000
vt 0.000000 4.682000
vt 0.000000 0.000000
vt 2.953333 4.682000
vt 4.682000 -0.074667
vt 0.000000 -0.074667
vt 4.682000 0.000000
vt -2.953333 -0.074667
vt -2.953333 0.000000
vt -4.682000 0.000000
vt -4.682000 -0.074667
vt 2.953333 -0.074667
vt -2.953333 4.682000
vn 0.000000 1.000000 0.000000
vn 0.000000 -1.000000 0.000000
vn 1.000000 0.000000 0.000000
vn -1.000000 0.000000 0.000000
vn 0.000000 0.000000 -1.000000
vn 0.000000 0.000000 1.000000
g SketchUp_ID2_piso
usemtl piso
s off
f 1/1/1 2/2/1 3/3/1
f 2/2/1 1/1/1 4/4/1
f 5/4/2 6/1/2 7/2/2
f 8/3/2 7/2/2 6/1/2
f 9/5/3 10/3/3 11/6/3
f 10/3/3 9/5/3 12/7/3
f 13/7/4 14/5/4 15/3/4
f 16/6/4 15/3/4 14/5/4
f 17/3/5 18/8/5 19/6/5
f 18/8/5 17/3/5 20/9/5
f 21/9/6 22/3/6 23/8/6
f 24/6/6 23/8/6 22/3/6
f 25/10/4 26/6/4 27/3/4
f 26/6/4 25/10/4 28/11/4
f 29/11/3 30/10/3 31/6/3
f 32/3/3 31/6/3 30/10/3
f 33/1/6 34/6/6 35/12/6
f 34/6/6 33/1/6 36/3/6
f 37/3/5 38/1/5 39/6/5
f 40/12/5 39/6/5 38/1/5
f 41/13/2 42/3/2 43/2/2
f 42/3/2 41/13/2 44/9/2
f 45/9/1 46/13/1 47/3/1
f 48/2/1 47/3/1 46/13/1
