# 
# 
mtllib Wooden_Barrels.mtl
o WoodenBarrel
v 1.414197 1.764134 -0.241632
v 1.478272 1.764134 -0.002392
v 1.414093 1.764134 0.236848
v 1.239032 1.765174 0.411909
v 0.999896 1.765174 0.475984
v 0.760656 1.764134 0.411909
v 0.585595 1.764134 0.236848
v 0.585595 1.764134 -0.241632
v 0.521416 1.764134 -0.002392
v 1.002705 1.732617 0.002601
v 0.760656 1.764134 -0.416693
v 0.999896 1.764134 -0.480768
v 1.239032 1.764134 -0.416693
v 0.412926 1.360027 -0.002392
v 0.491563 1.360027 0.291041
v 0.365806 0.871873 -0.002392
v 0.706359 1.360027 0.505837
v 0.450788 0.871873 0.314549
v 0.412510 0.382056 -0.002392
v 0.999792 1.360547 0.584474
v 1.293225 1.360547 0.505837
v 1.508125 1.360027 0.291041
v 1.586658 1.360027 -0.002392
v 1.508125 1.360027 -0.295825
v 1.293225 1.360027 -0.510621
v 0.999792 1.360027 -0.589258
v 0.706359 1.360027 -0.510621
v 0.491563 1.360027 -0.295825
v 0.450788 0.871873 -0.319437
v 0.491251 0.382056 -0.296033
v 0.521208 -0.009466 -0.002392
v 0.585283 -0.009466 -0.241736
v 0.706151 0.382056 -0.511037
v 0.760552 -0.009465 -0.416901
v 0.682851 0.871873 -0.551500
v 0.999792 0.382056 -0.589778
v 0.999896 -0.015082 -0.481080
v 1.293537 0.382056 -0.511037
v 1.239136 -0.015082 -0.416901
v 1.508437 0.382056 -0.296033
v 1.414405 -0.009466 -0.241736
v 1.587178 0.382056 -0.002392
v 1.478480 -0.009466 -0.002392
v 1.508437 0.382056 0.291249
v 1.414405 -0.009466 0.236951
v 1.293537 0.382368 0.506252
v 1.239136 -0.008946 0.412117
v 0.999792 0.382368 0.584890
v 0.999896 -0.008946 0.476295
v 0.706151 0.382056 0.506252
v 0.760552 -0.009466 0.412117
v 0.491251 0.382056 0.291249
v 0.682851 0.871873 0.546611
v 0.585283 -0.009466 0.236951
v 0.999792 0.871873 0.631593
v 1.316837 0.871873 0.546611
v 1.548899 0.871873 0.314549
v 1.633882 0.871873 -0.002392
v 1.548899 0.871873 -0.319437
v 1.316837 0.871873 -0.551500
v 0.999792 0.871873 -0.636378
v -0.585803 1.764134 -0.241632
v -0.521728 1.764134 -0.002392
v -0.585907 1.764134 0.236848
v -0.760968 1.765174 0.411909
v -1.000104 1.765174 0.475984
v -1.239344 1.764134 0.411909
v -1.414405 1.764134 0.236848
v -1.414405 1.764134 -0.241632
v -1.478584 1.764134 -0.002392
v -0.997296 1.732617 0.002601
v -1.239344 1.764134 -0.416693
v -1.000104 1.764134 -0.480768
v -0.760968 1.764134 -0.416693
v -1.587074 1.360027 -0.002392
v -1.508437 1.360027 0.291041
v -1.634194 0.871873 -0.002392
v -1.293641 1.360027 0.505837
v -1.549212 0.871873 0.314549
v -1.587490 0.382056 -0.002392
v -1.000208 1.360547 0.584474
v -0.706775 1.360547 0.505837
v -0.491875 1.360027 0.291041
v -0.413342 1.360027 -0.002392
v -0.491875 1.360027 -0.295825
v -0.706775 1.360027 -0.510621
v -1.000208 1.360027 -0.589258
v -1.293641 1.360027 -0.510621
v -1.508437 1.360027 -0.295825
v -1.549212 0.871873 -0.319437
v -1.508749 0.382056 -0.296033
v -1.478792 -0.009466 -0.002392
v -1.414717 -0.009466 -0.241736
v -1.293849 0.382056 -0.511037
v -1.239448 -0.009465 -0.416901
v -1.317149 0.871873 -0.551500
v -1.000208 0.382056 -0.589778
v -1.000104 -0.015082 -0.481080
v -0.706463 0.382056 -0.511037
v -0.760864 -0.015082 -0.416901
v -0.491563 0.382056 -0.296033
v -0.585595 -0.009466 -0.241736
v -0.412822 0.382056 -0.002392
v -0.521520 -0.009466 -0.002392
v -0.491563 0.382056 0.291249
v -0.585595 -0.009466 0.236951
v -0.706463 0.382368 0.506252
v -0.760864 -0.008946 0.412117
v -1.000208 0.382368 0.584890
v -1.000104 -0.008946 0.476295
v -1.293849 0.382056 0.506252
v -1.239448 -0.009466 0.412117
v -1.508749 0.382056 0.291249
v -1.317149 0.871873 0.546611
v -1.414717 -0.009466 0.236951
v -1.000208 0.871873 0.631593
v -0.683163 0.871873 0.546611
v -0.451100 0.871873 0.314549
v -0.366118 0.871873 -0.002392
v -0.451100 0.871873 -0.319437
v -0.683163 0.871873 -0.551500
v -1.000208 0.871873 -0.636378
vt 0.771392 0.094642
vt 0.643456 0.001510
vt 0.771872 0.001510
vt 0.642960 0.094642
vt 0.515520 0.001510
vt 0.145621 0.937938
vt 0.283645 0.818474
vt 0.283645 0.956014
vt 0.421201 0.937938
vt 0.562562 0.819425
vt 0.522574 0.888436
vt 1.538992 0.210019
vt 1.413008 0.094642
vt 1.541920 0.094642
vt 1.413488 0.001510
vt 1.541920 0.001510
vt 0.008066 0.819892
vt 1.284592 0.094642
vt 1.156656 0.001510
vt 1.285072 0.001510
vt 1.413488 0.210019
vt 1.542896 0.326959
vt 1.156656 0.094642
vt 1.028720 0.001510
vt 1.028224 0.094642
vt 0.899808 0.094642
vt 0.900304 0.001510
vt 0.045184 0.887953
vt 0.515024 0.094642
vt 0.387104 0.001510
vt 0.386608 0.094642
vt 0.258672 0.001510
vt 0.258192 0.094642
vt 0.130256 0.001510
vt 0.129760 0.094642
vt 0.001824 0.001510
vt 0.000848 0.094642
vt 0.130256 0.210019
vt 0.004768 0.210019
vt 0.130736 0.326959
vt 0.001824 0.326959
vt 0.001824 0.420628
vt 0.130256 0.420628
vt 0.259168 0.326959
vt 0.258672 0.420628
vt 0.258672 0.210019
vt 0.387584 0.326959
vt 0.387104 0.420628
vt 0.515520 0.326959
vt 0.515520 0.420628
vt 0.643936 0.326959
vt 0.643456 0.420628
vt 0.772368 0.326959
vt 0.771872 0.420628
vt 0.900784 0.326959
vt 0.900304 0.420628
vt 1.029200 0.326959
vt 1.028720 0.420628
vt 1.157136 0.326959
vt 1.156656 0.420628
vt 1.285568 0.326959
vt 1.285072 0.420628
vt 1.413984 0.326959
vt 1.285072 0.210019
vt 1.413488 0.420628
vt 1.541920 0.420628
vt 1.156656 0.210019
vt 1.028720 0.210019
vt 0.900304 0.210019
vt 0.771872 0.210019
vt 0.643456 0.210019
vt 0.515520 0.210019
vt 0.387104 0.210019
vt 0.522574 0.887002
vt 0.422152 0.938406
vt 0.284113 0.957448
vt 0.146089 0.938889
vt 0.045667 0.887002
vt 0.771392 0.716900
vt 0.643456 0.810032
vt 0.771872 0.810032
vt 0.642960 0.716900
vt 0.515520 0.810032
vt 0.855544 0.880360
vt 0.721102 0.996725
vt 0.721102 0.862753
vt 0.587115 0.880360
vt 0.449422 0.995798
vt 0.488372 0.928577
vt 1.538992 0.601522
vt 1.413008 0.716900
vt 1.541920 0.716900
vt 1.413488 0.810032
vt 1.541920 0.810032
vt 0.989531 0.995343
vt 1.284592 0.716900
vt 1.156656 0.810032
vt 1.285072 0.810032
vt 1.413488 0.601522
vt 1.542896 0.484582
vt 1.156656 0.716900
vt 1.028720 0.810032
vt 1.028224 0.716900
vt 0.899808 0.716900
vt 0.900304 0.810032
vt 0.953375 0.929048
vt 0.515024 0.716900
vt 0.387104 0.810032
vt 0.386608 0.716900
vt 0.258672 0.810032
vt 0.258192 0.716900
vt 0.130256 0.810032
vt 0.129760 0.716900
vt 0.001824 0.810032
vt 0.000848 0.716900
vt 0.130256 0.601522
vt 0.004768 0.601522
vt 0.130736 0.484582
vt 0.001824 0.484582
vt 0.001824 0.390914
vt 0.130256 0.390914
vt 0.259168 0.484582
vt 0.258672 0.390914
vt 0.258672 0.601522
vt 0.387584 0.484582
vt 0.387104 0.390914
vt 0.515520 0.484582
vt 0.515520 0.390914
vt 0.643936 0.484582
vt 0.643456 0.390914
vt 0.772368 0.484582
vt 0.771872 0.390914
vt 0.900784 0.484582
vt 0.900304 0.390914
vt 1.029200 0.484582
vt 1.028720 0.390914
vt 1.157136 0.484582
vt 1.156656 0.390914
vt 1.285568 0.484582
vt 1.285072 0.390914
vt 1.413984 0.484582
vt 1.285072 0.601522
vt 1.413488 0.390914
vt 1.541920 0.390914
vt 1.156656 0.601522
vt 1.028720 0.601522
vt 0.900304 0.601522
vt 0.771872 0.601522
vt 0.643456 0.601522
vt 0.515520 0.601522
vt 0.387104 0.601522
vt 0.488372 0.929974
vt 0.586188 0.879905
vt 0.720646 0.861356
vt 0.855088 0.879434
vt 0.952904 0.929974
vn 0.984405 0.175878 0.000031
vn 0.561418 0.763207 -0.319834
vn 0.643788 0.765191 0.000092
vn 0.852504 0.175909 -0.492172
vn 0.332408 0.746849 -0.575915
vn -0.557665 0.763207 -0.326304
vn 0.000244 1.000000 0.000031
vn -0.322001 0.764916 -0.557817
vn -0.003540 0.763146 -0.646168
vn -0.999969 0.000549 0.000000
vn -0.852473 0.175939 0.492203
vn -0.984375 0.175939 0.000000
vn -0.557482 0.763329 0.326334
vn -0.664968 0.746818 0.000031
vn -0.492386 0.175787 0.852412
vn -0.001221 0.766198 0.642567
vn -0.323160 0.764885 0.557176
vn -0.865963 0.000519 0.500046
vn -0.983764 -0.179327 -0.000031
vn -0.000153 0.175756 0.984405
vn 0.322398 0.766198 0.555834
vn 0.492233 0.175726 0.852535
vn 0.852626 0.175756 0.492019
vn 0.558306 0.765038 0.320872
vn 0.492111 0.175939 -0.852535
vn -0.000031 0.175939 -0.984375
vn -0.492203 0.175939 -0.852473
vn -0.852504 0.175939 -0.492203
vn -0.865993 0.000549 -0.500015
vn -0.852016 -0.179296 -0.491806
vn -0.963579 -0.267423 -0.000088
vn -0.834539 -0.267362 -0.481729
vn -0.492019 -0.179357 -0.851894
vn -0.481839 -0.266276 -0.834822
vn -0.499924 0.000641 -0.866054
vn -0.000458 -0.178137 -0.983978
vn -0.001079 -0.264034 -0.964513
vn 0.492172 -0.177618 -0.852168
vn 0.482093 -0.265211 -0.835015
vn 0.852260 -0.178747 -0.491562
vn 0.835070 -0.267335 -0.480823
vn 0.983764 -0.179327 0.000031
vn 0.963579 -0.267423 0.000088
vn 0.851955 -0.179296 0.491928
vn 0.834498 -0.267424 0.481765
vn 0.491775 -0.179327 0.852016
vn 0.481554 -0.267594 0.834565
vn 0.000000 -0.179327 0.983764
vn 0.000219 -0.267413 0.963582
vn -0.491867 -0.179327 0.851985
vn -0.481720 -0.267457 0.834514
vn -0.851955 -0.179266 0.491928
vn -0.500046 0.000549 0.865963
vn -0.834444 -0.267336 0.481907
vn -0.000061 0.000519 0.999969
vn 0.500015 0.000580 0.865993
vn 0.865993 0.000580 0.500015
vn 0.999969 0.000610 0.000061
vn 0.865963 0.000549 -0.500076
vn 0.499924 0.000610 -0.866054
vn 0.000000 0.000641 -0.999969
vn 0.000244 0.999969 0.000031
vn -0.834539 -0.267361 -0.481729
vn -0.481840 -0.266276 -0.834822
vn 0.481554 -0.267594 0.834566
vn -0.481720 -0.267457 0.834513
usemtl WoodenBarrel
s 1
f 23/1/1 1/2/2 2/3/3
f 24/4/4 13/5/5 1/2/2
f 8/6/6 10/7/7 11/8/8
f 12/9/9 11/8/8 10/7/7
f 1/2/2 23/1/1 24/4/4
f 12/9/9 1/10/2 13/11/5
f 16/12/10 15/13/11 14/14/12
f 14/14/12 7/15/13 9/16/14
f 8/6/6 7/17/13 10/7/7
f 17/18/15 5/19/16 6/20/17
f 18/21/18 17/18/15 15/13/11
f 15/13/11 16/12/10 18/21/18
f 19/22/19 18/21/18 16/12/10
f 6/20/17 15/13/11 17/18/15
f 7/15/13 14/14/12 15/13/11
f 20/23/20 4/24/21 5/19/16
f 5/19/16 17/18/15 20/23/20
f 4/24/21 20/23/20 21/25/22
f 22/26/23 4/24/21 21/25/22
f 22/26/23 2/3/3 3/27/24
f 8/6/6 9/28/14 7/17/13
f 13/5/5 24/4/4 25/29/25
f 25/29/25 12/30/9 13/5/5
f 12/30/9 25/29/25 26/31/26
f 26/31/26 11/32/8 12/30/9
f 11/32/8 26/31/26 27/33/27
f 11/32/8 27/33/27 8/34/6
f 8/34/6 27/33/27 28/35/28
f 28/35/28 9/36/14 8/34/6
f 9/36/14 28/35/28 14/37/12
f 29/38/29 14/37/12 28/35/28
f 14/37/12 29/38/29 16/39/10
f 30/40/30 16/39/10 29/38/29
f 16/39/10 30/40/30 19/41/19
f 30/40/30 31/42/31 19/41/19
f 31/42/31 30/40/30 32/43/32
f 33/44/33 32/43/32 30/40/30
f 29/38/29 33/44/33 30/40/30
f 32/43/32 33/44/33 34/45/34
f 33/44/33 29/38/29 35/46/35
f 28/35/28 35/46/35 29/38/29
f 35/46/35 28/35/28 27/33/27
f 35/46/35 36/47/36 33/44/33
f 36/47/36 34/45/34 33/44/33
f 34/45/34 36/47/36 37/48/37
f 38/49/38 37/48/37 36/47/36
f 37/48/37 38/49/38 39/50/39
f 40/51/40 39/50/39 38/49/38
f 39/50/39 40/51/40 41/52/41
f 42/53/42 41/52/41 40/51/40
f 41/52/41 42/53/42 43/54/43
f 44/55/44 43/54/43 42/53/42
f 43/54/43 44/55/44 45/56/45
f 46/57/46 45/56/45 44/55/44
f 45/56/45 46/57/46 47/58/47
f 48/59/48 47/58/47 46/57/46
f 47/58/47 48/59/48 49/60/49
f 50/61/50 49/60/49 48/59/48
f 49/60/49 50/61/50 51/62/51
f 52/63/52 51/62/51 50/61/50
f 48/59/48 53/64/53 50/61/50
f 53/64/53 52/63/52 50/61/50
f 51/62/51 52/63/52 54/65/54
f 52/63/52 53/64/53 18/21/18
f 18/21/18 19/22/19 52/63/52
f 19/22/19 54/65/54 52/63/52
f 54/65/54 19/22/19 31/66/31
f 17/18/15 18/21/18 53/64/53
f 53/64/53 20/23/20 17/18/15
f 20/23/20 53/64/53 55/67/55
f 53/64/53 48/59/48 55/67/55
f 46/57/46 55/67/55 48/59/48
f 56/68/56 20/23/20 55/67/55
f 55/67/55 46/57/46 56/68/56
f 20/23/20 56/68/56 21/25/22
f 56/68/56 22/26/23 21/25/22
f 22/26/23 56/68/56 57/69/57
f 46/57/46 57/69/57 56/68/56
f 57/69/57 23/1/1 22/26/23
f 23/1/1 57/69/57 58/70/58
f 58/70/58 24/4/4 23/1/1
f 57/69/57 46/57/46 44/55/44
f 44/55/44 58/70/58 57/69/57
f 58/70/58 44/55/44 42/53/42
f 24/4/4 58/70/58 59/71/59
f 42/53/42 59/71/59 58/70/58
f 59/71/59 42/53/42 40/51/40
f 59/71/59 25/29/25 24/4/4
f 25/29/25 59/71/59 60/72/60
f 40/51/40 60/72/60 59/71/59
f 60/72/60 26/31/26 25/29/25
f 61/73/61 27/33/27 26/31/26
f 26/31/26 60/72/60 61/73/61
f 27/33/27 61/73/61 35/46/35
f 36/47/36 35/46/35 61/73/61
f 61/73/61 38/49/38 36/47/36
f 38/49/38 61/73/61 60/72/60
f 60/72/60 40/51/40 38/49/38
f 10/7/7 2/74/3 1/10/2
f 10/7/7 3/75/24 2/74/3
f 10/7/7 4/76/21 3/75/24
f 10/7/7 5/77/16 4/76/21
f 10/7/7 6/78/17 5/77/16
f 10/7/7 7/17/13 6/78/17
f 12/9/9 10/7/7 1/10/2
f 2/3/3 22/26/23 23/1/1
f 4/24/21 22/26/23 3/27/24
f 15/13/11 6/20/17 7/15/13
f 84/79/1 62/80/2 63/81/3
f 85/82/4 74/83/5 62/80/2
f 69/84/6 71/85/62 72/86/8
f 73/87/9 72/86/8 71/85/62
f 62/80/2 84/79/1 85/82/4
f 73/87/9 62/88/2 74/89/5
f 77/90/10 76/91/11 75/92/12
f 75/92/12 68/93/13 70/94/14
f 69/84/6 68/95/13 71/85/62
f 78/96/15 66/97/16 67/98/17
f 79/99/18 78/96/15 76/91/11
f 76/91/11 77/90/10 79/99/18
f 80/100/19 79/99/18 77/90/10
f 67/98/17 76/91/11 78/96/15
f 68/93/13 75/92/12 76/91/11
f 81/101/20 65/102/21 66/97/16
f 66/97/16 78/96/15 81/101/20
f 65/102/21 81/101/20 82/103/22
f 83/104/23 65/102/21 82/103/22
f 83/104/23 63/81/3 64/105/24
f 69/84/6 70/106/14 68/95/13
f 74/83/5 85/82/4 86/107/25
f 86/107/25 73/108/9 74/83/5
f 73/108/9 86/107/25 87/109/26
f 87/109/26 72/110/8 73/108/9
f 72/110/8 87/109/26 88/111/27
f 72/110/8 88/111/27 69/112/6
f 69/112/6 88/111/27 89/113/28
f 89/113/28 70/114/14 69/112/6
f 70/114/14 89/113/28 75/115/12
f 90/116/29 75/115/12 89/113/28
f 75/115/12 90/116/29 77/117/10
f 91/118/30 77/117/10 90/116/29
f 77/117/10 91/118/30 80/119/19
f 91/118/30 92/120/31 80/119/19
f 92/120/31 91/118/30 93/121/63
f 94/122/33 93/121/63 91/118/30
f 90/116/29 94/122/33 91/118/30
f 93/121/63 94/122/33 95/123/64
f 94/122/33 90/116/29 96/124/35
f 89/113/28 96/124/35 90/116/29
f 96/124/35 89/113/28 88/111/27
f 96/124/35 97/125/36 94/122/33
f 97/125/36 95/123/64 94/122/33
f 95/123/64 97/125/36 98/126/37
f 99/127/38 98/126/37 97/125/36
f 98/126/37 99/127/38 100/128/39
f 101/129/40 100/128/39 99/127/38
f 100/128/39 101/129/40 102/130/41
f 103/131/42 102/130/41 101/129/40
f 102/130/41 103/131/42 104/132/43
f 105/133/44 104/132/43 103/131/42
f 104/132/43 105/133/44 106/134/45
f 107/135/46 106/134/45 105/133/44
f 106/134/45 107/135/46 108/136/65
f 109/137/48 108/136/65 107/135/46
f 108/136/65 109/137/48 110/138/49
f 111/139/50 110/138/49 109/137/48
f 110/138/49 111/139/50 112/140/66
f 113/141/52 112/140/66 111/139/50
f 109/137/48 114/142/53 111/139/50
f 114/142/53 113/141/52 111/139/50
f 112/140/66 113/141/52 115/143/54
f 113/141/52 114/142/53 79/99/18
f 79/99/18 80/100/19 113/141/52
f 80/100/19 115/143/54 113/141/52
f 115/143/54 80/100/19 92/144/31
f 78/96/15 79/99/18 114/142/53
f 114/142/53 81/101/20 78/96/15
f 81/101/20 114/142/53 116/145/55
f 114/142/53 109/137/48 116/145/55
f 107/135/46 116/145/55 109/137/48
f 117/146/56 81/101/20 116/145/55
f 116/145/55 107/135/46 117/146/56
f 81/101/20 117/146/56 82/103/22
f 117/146/56 83/104/23 82/103/22
f 83/104/23 117/146/56 118/147/57
f 107/135/46 118/147/57 117/146/56
f 118/147/57 84/79/1 83/104/23
f 84/79/1 118/147/57 119/148/58
f 119/148/58 85/82/4 84/79/1
f 118/147/57 107/135/46 105/133/44
f 105/133/44 119/148/58 118/147/57
f 119/148/58 105/133/44 103/131/42
f 85/82/4 119/148/58 120/149/59
f 103/131/42 120/149/59 119/148/58
f 120/149/59 103/131/42 101/129/40
f 120/149/59 86/107/25 85/82/4
f 86/107/25 120/149/59 121/150/60
f 101/129/40 121/150/60 120/149/59
f 121/150/60 87/109/26 86/107/25
f 122/151/61 88/111/27 87/109/26
f 87/109/26 121/150/60 122/151/61
f 88/111/27 122/151/61 96/124/35
f 97/125/36 96/124/35 122/151/61
f 122/151/61 99/127/38 97/125/36
f 99/127/38 122/151/61 121/150/60
f 121/150/60 101/129/40 99/127/38
f 71/85/62 63/152/3 62/88/2
f 71/85/62 64/153/24 63/152/3
f 71/85/62 65/154/21 64/153/24
f 71/85/62 66/155/16 65/154/21
f 71/85/62 67/156/17 66/155/16
f 71/85/62 68/95/13 67/156/17
f 73/87/9 71/85/62 62/88/2
f 63/81/3 83/104/23 84/79/1
f 65/102/21 83/104/23 64/105/24
f 76/91/11 67/98/17 68/93/13
